<svg width="450" height="450" xmlns="http://www.w3.org/2000/svg"><g fill="#F5A623" fill-rule="evenodd"><path d="M150 250.621C150 274.047 135.25 283 115.582 283c-5.811 0-11.473-.597-14.155-1.343L98 260.171c3.278.895 6.407 1.641 12.069 1.641 8.94 0 14.303-3.73 14.303-15.22V179H150v71.621zm97 22.572C236.419 280.15 223.927 284 209.966 284 177.782 284 160 262.682 160 231.148 160 199.466 179.252 178 210.554 178c12.492 0 22.926 2.96 31.008 7.55l-3.38 22.059c-7.641-4.886-16.606-8.735-27.04-8.735-17.488 0-26.012 13.028-26.012 32.126 0 19.246 8.818 32.718 26.306 32.718 5.584 0 9.552-1.036 13.667-3.257v-18.21h-17.635l-2.94-18.801H247v49.743zm101-42.842C348 260.952 329.32 282 295.317 282H260V179h34.587C329.612 179 348 199.75 348 230.35zM323 231c0-21.203-11.838-31-28.938-31H285v62h9.062c17.83 0 28.938-9.358 28.938-31z"/><path d="M132.215 420.9h185.138c22.961 0 43.311-14.786 50.406-36.623L424.97 208.2c7.096-21.837-.677-45.76-19.253-59.256L255.937 40.122c-18.576-13.496-43.73-13.496-62.306 0L43.851 148.944C25.275 162.44 17.502 186.363 24.598 208.2l57.21 176.077c7.096 21.837 27.446 36.622 50.407 36.622zm7.282-38.025a25 25 0 0 1-23.776-17.274L63.01 203.376a25 25 0 0 1 9.082-27.95L210.089 75.164a25 25 0 0 1 29.39 0l137.996 100.26a25 25 0 0 1 9.082 27.951L333.847 365.6a25 25 0 0 1-23.776 17.274H139.497z"/></g></svg>